<svg width="1000" height="846" viewBox="0 0 1000 846" fill="none" xmlns="http://www.w3.org/2000/svg">
<path d="M787.024 645.829H746.782L726.672 602.503L722.438 592.679C721.412 590.3 720.221 588.031 718.934 585.837C707.872 566.965 687.595 555.112 665.326 555.112H614.988H572.786H407.31L370.778 636.431H610.537H652.716L706.589 761.452L707.983 764.685H313.16H272.731L291.674 719.103L328.814 636.431L365.346 555.112L382.536 516.845L467.366 328.023L445.558 281.043H417.639C411.638 281.043 405.751 280.481 400.001 279.477L292.37 519.056L266.816 575.934C262.292 581.025 258.529 586.885 255.81 593.427L216.987 686.856L192.472 741.421L170.579 698.775L83.1851 528.552L300.244 81.3147H358.224H401.895L380.877 119.581L363.471 151.276L363.469 151.28C352.852 170.617 353.223 193.488 364.46 212.467C368.618 219.494 373.974 225.456 380.173 230.198C390.437 238.048 403.05 242.467 416.519 242.706C416.895 242.71 417.26 242.776 417.639 242.776H469.995L488.118 281.822L509.444 327.762L597.223 516.845H665.326C673.118 516.845 680.754 517.765 688.13 519.481L553.553 229.587L538.536 197.238C535.983 191.736 532.66 186.734 528.744 182.32C517.183 169.299 500.378 161.457 482.476 161.457H482.268L456.929 150.082L473.68 119.581L494.697 81.3192H552.561H650.322L907.77 645.829H787.024ZM994.398 639.752L719.124 36.1482C709.111 14.193 687.037 0.00452394 662.897 0.00452394H552.561H514.28V-1.12376e-05H404.472H289.997C265.283 -1.12376e-05 242.342 14.3522 231.534 36.5905L6.35144 500.568C-2.35252 518.724 -2.11228 540.282 7.08251 558.415L135.595 808.742C140.563 818.441 147.654 826.469 156.135 832.417C166.816 839.91 179.711 844.089 193.386 844.089C193.939 844.089 194.496 844.085 195.049 844.071C202.738 843.881 210.132 842.369 216.999 839.728C225.307 843.74 234.484 846 244.022 846H272.207H737.106C758.096 846 777.515 835.535 789.054 818.012C799.381 802.324 801.948 783.093 796.43 765.411C795.784 763.336 795.09 761.271 794.218 759.25L780.382 727.144H822.066H938.171C959.29 727.144 978.722 716.542 990.147 698.784C1001.57 681.031 1003.16 658.956 994.398 639.752Z" fill="black"/>
</svg>
